<svg xmlns="http://www.w3.org/2000/svg" viewBox="0 0 348.72 191.76"><defs><style>.cls-1{fill:#b99c31;}.cls-2{fill:#212c5e;}</style></defs><g id="Layer_2" data-name="Layer 2"><g id="Layer_1-2" data-name="Layer 1"><path class="cls-1" d="M156.39,66.61,142.44,29.43H126.33v81.65H226V71.16H160.88S157.91,71.16,156.39,66.61ZM169,102.52A5.54,5.54,0,1,1,174,97,5.28,5.28,0,0,1,169,102.52Zm30.28,0a5.53,5.53,0,1,1,5-5.51A5.27,5.27,0,0,1,199.26,102.52Zm-4.2-24.61h15l-1.7,6.43a2.34,2.34,0,0,1-2.53,2h-46a4.21,4.21,0,0,1,0-8.41h35.19Z"/><path class="cls-1" d="M126.33,21H112.19a4.2,4.2,0,0,0,0,8.4h14.14Z"/><path class="cls-1" d="M118.65,37.3a4.1,4.1,0,0,0-3.92-4.18v0H103.88v0a4.2,4.2,0,0,0,0,8.38h10.85A4.12,4.12,0,0,0,118.65,37.3Z"/><path class="cls-1" d="M7.11,166H0l13-36.14a7.53,7.53,0,0,1,2.92-4.05,9,9,0,0,1,4.84-1.18,8.88,8.88,0,0,1,4.79,1.18,7.23,7.23,0,0,1,2.87,4.05L40.86,166H33.7l-11.22-32.7a1.81,1.81,0,0,0-1.8-1.38,1.91,1.91,0,0,0-1.86,1.38Z"/><path class="cls-1" d="M74.83,125.36v7.11H55.91a4.54,4.54,0,0,0-3.66,1.35,5.15,5.15,0,0,0-1.16,3.46,6.65,6.65,0,0,0,.25,1.78,3.89,3.89,0,0,0,.87,1.56,4.15,4.15,0,0,0,1.67,1.09,7.81,7.81,0,0,0,2.69.39h8.64a15.42,15.42,0,0,1,6.18,1.06,10.08,10.08,0,0,1,3.8,2.73,9.48,9.48,0,0,1,1.92,3.86,18.84,18.84,0,0,1,.52,4.33,16.3,16.3,0,0,1-.66,4.76,9.88,9.88,0,0,1-2.08,3.76,9.58,9.58,0,0,1-3.64,2.5,14.29,14.29,0,0,1-5.39.91H45.3V158.9H66.08a4.85,4.85,0,0,0,3.86-1.41,5.37,5.37,0,0,0,1.23-3.65,6.87,6.87,0,0,0-.27-1.9,3.87,3.87,0,0,0-.93-1.62,4.67,4.67,0,0,0-1.78-1.11,7.91,7.91,0,0,0-2.82-.42H56.78a15.2,15.2,0,0,1-6.07-1A9.26,9.26,0,0,1,47,145.05a9.74,9.74,0,0,1-1.86-3.79,17.35,17.35,0,0,1-.52-4.22,16.36,16.36,0,0,1,.63-4.66,9.17,9.17,0,0,1,5.6-6.15,14.23,14.23,0,0,1,5.26-.87Z"/><path class="cls-1" d="M91.25,125.36V166H84.79V125.36Z"/><path class="cls-1" d="M103.83,166H96.72l13-36.14a7.49,7.49,0,0,1,2.93-4.05,10.41,10.41,0,0,1,9.63,0,7.32,7.32,0,0,1,2.87,4.05L137.58,166h-7.17l-11.21-32.7a1.81,1.81,0,0,0-1.81-1.38,1.9,1.9,0,0,0-1.85,1.38Z"/><path class="cls-1" d="M177.57,125.36a13,13,0,0,1,5.36,1,10.06,10.06,0,0,1,5.83,6.53,15.88,15.88,0,0,1,.68,4.64,17.09,17.09,0,0,1-.44,3.82,13.27,13.27,0,0,1-1.37,3.55,10.47,10.47,0,0,1-2.4,2.92,10.15,10.15,0,0,1-3.61,1.93L190.21,166H183l-8.43-15.72H165q-.93,0-.93,1V166h-6.45V149.93c0-2.29.45-3.93,1.36-4.94s2.39-1.5,4.43-1.5h14.39a5.19,5.19,0,0,0,2.35-.49,4.45,4.45,0,0,0,1.59-1.26,5.58,5.58,0,0,0,.9-1.81,7.4,7.4,0,0,0,.3-2.1,6,6,0,0,0-1.23-3.77,4.64,4.64,0,0,0-3.91-1.59H157.55v-7.11Z"/><path class="cls-1" d="M226.2,125.36v7.11H207.71a5.69,5.69,0,0,0-4.27,1.38,5.24,5.24,0,0,0-1.31,3.73c0,3.22,1.88,4.82,5.63,4.82h18.16v6.45H207.59q-5.62,0-5.63,4.93a5,5,0,0,0,1.38,3.76,5.73,5.73,0,0,0,4.21,1.36h18.7V166h-18.7a16.31,16.31,0,0,1-5.61-.85,10.34,10.34,0,0,1-3.83-2.32,8.74,8.74,0,0,1-2.19-3.52,13.92,13.92,0,0,1-.69-4.39,11.28,11.28,0,0,1,1.37-5.81,8.82,8.82,0,0,1,4-3.53q-5.2-2.34-5.2-9.15a13.57,13.57,0,0,1,.7-4.45,9.26,9.26,0,0,1,2.22-3.53,10.24,10.24,0,0,1,3.83-2.29,17.14,17.14,0,0,1,5.61-.81Z"/><path class="cls-1" d="M259.79,125.36v7.11H249V166H242.5V132.47H231.72v-7.11Z"/><path class="cls-1" d="M263,166h-7.11l13-36.14a7.48,7.48,0,0,1,2.92-4.05,9,9,0,0,1,4.85-1.18,8.81,8.81,0,0,1,4.77,1.18,7.24,7.24,0,0,1,2.88,4.05L296.71,166h-7.16l-11.22-32.7a1.82,1.82,0,0,0-1.8-1.38,1.9,1.9,0,0,0-1.86,1.38Z"/><path class="cls-1" d="M308.64,125.36V166h-6.46V125.36Z"/><path class="cls-1" d="M323.63,125.36v26.55a10.68,10.68,0,0,0,.35,2.75,5.36,5.36,0,0,0,1.23,2.23,6,6,0,0,0,2.32,1.47,10.65,10.65,0,0,0,3.65.54h14.33V166H330.79a16.49,16.49,0,0,1-6.26-1.06,11,11,0,0,1-4.24-2.92,11.39,11.39,0,0,1-2.38-4.42,20.42,20.42,0,0,1-.74-5.64V125.36Z"/><path class="cls-1" d="M111.11,191.49h-2.34l5.56-14.89h2l5.46,14.89h-2.33L118.12,188h-5.77Zm4.11-12.14-2.29,6.71h4.61Z"/><path class="cls-1" d="M140.71,187a6.75,6.75,0,0,1-6.41,4.8c-4.08,0-7.08-3.51-7.08-7.74s2.87-7.7,7.06-7.7a7,7,0,0,1,6.45,4.88h-2.29a4.76,4.76,0,0,0-4.18-2.79c-2.87,0-4.88,2.59-4.88,5.61s2.05,5.65,4.9,5.65a4.81,4.81,0,0,0,4.16-2.71Z"/><path class="cls-1" d="M148.37,191.49H146l5.55-14.89h2L159,191.49h-2.33L155.39,188h-5.78Zm4.11-12.14-2.28,6.71h4.6Z"/><path class="cls-1" d="M165.93,176.6h4.19c1.8,0,4,.3,5.55,2.41a8.13,8.13,0,0,1,1.48,5c0,4.35-2.14,7.47-6.89,7.47h-4.33Zm2.16,12.79h2.28c3.18,0,4.64-2.23,4.64-5.33a6.4,6.4,0,0,0-1.1-3.8,4.16,4.16,0,0,0-3.52-1.57h-2.3Z"/><path class="cls-1" d="M184.65,176.6h7.56v2.09H186.8v4.22h5.33V185H186.8v4.4h5.41v2.1h-7.56Z"/><path class="cls-1" d="M199.94,191.49V176.6h2.95l4.21,11.53,4.15-11.53h2.94v14.89h-2l.05-12.55-4.47,12.55h-1.41l-4.47-12.55,0,12.55Z"/><path class="cls-1" d="M225.44,186.19l-4.23-9.59h2.34l3,7.36,3-7.36h2.34l-4.24,9.59v5.3h-2.16Z"/><rect class="cls-1" x="237.74" y="185.63" width="107.82" height="1.06"/><rect class="cls-1" x="0.09" y="185.63" width="102.84" height="1.06"/><polygon class="cls-1" points="126.33 0 126.33 21.5 147.58 21.5 162.97 62.79 206.56 62.79 213.65 62.79 225.97 62.75 225.97 61.24 225.97 57.32 225.97 48.91 225.97 7.6 225.97 0 126.33 0"/><path class="cls-2" d="M167.56,25.36a5.8,5.8,0,0,0-5.49,6.06,5.79,5.79,0,0,0,5.49,6,5.53,5.53,0,0,0,5.12-3.89h53.71V29.29h-53.7A5.54,5.54,0,0,0,167.56,25.36Z"/><path class="cls-2" d="M207.11,20.21,198,8.22H183.34a5.55,5.55,0,0,0-5.14-3.93,5.79,5.79,0,0,0-5.49,6.05,5.79,5.79,0,0,0,5.49,6.05,5.52,5.52,0,0,0,5.12-3.88h12.87l9.1,12h21.1V20.21Z"/><path class="cls-2" d="M197.19,50.32H190.3a5.55,5.55,0,0,0-5.13-3.93,5.79,5.79,0,0,0-5.5,6,5.78,5.78,0,0,0,5.5,6.05,5.53,5.53,0,0,0,5.11-3.88h9.05l6.94-12h20.12V38.34H204.14Z"/><path class="cls-1" d="M348.72,129.83a4.18,4.18,0,1,1-4.16-4.47A4.3,4.3,0,0,1,348.72,129.83Zm-7.31,0a3.16,3.16,0,1,0,3.15-3.57A3.33,3.33,0,0,0,341.41,129.83Zm2.5,2.35H343V127.7a7.86,7.86,0,0,1,1.57-.13,2.29,2.29,0,0,1,1.41.33,1.29,1.29,0,0,1,.39,1,1.12,1.12,0,0,1-.84,1V130a1.28,1.28,0,0,1,.74,1.09,3.5,3.5,0,0,0,.3,1.12h-1a4.46,4.46,0,0,1-.32-1.09.73.73,0,0,0-.84-.71h-.45Zm0-2.54h.44c.53,0,.95-.18.95-.65s-.27-.68-.87-.68a2,2,0,0,0-.52.05Z"/></g></g></svg>